<svg width="21" height="18" viewBox="0 0 21 18" fill="none" xmlns="http://www.w3.org/2000/svg">
<path d="M8.71875 0H7.3125C6.38086 0 5.625 0.755859 5.625 1.6875V5.625C5.625 6.86602 6.63398 7.875 7.875 7.875H12.375C13.616 7.875 14.625 6.86602 14.625 5.625V1.6875C14.625 0.755859 13.8691 0 12.9375 0H11.5312V2.8125C11.5312 3.12188 11.2781 3.375 10.9688 3.375H9.28125C8.97188 3.375 8.71875 3.12188 8.71875 2.8125V0ZM2.25 9C1.00898 9 0 10.009 0 11.25V15.75C0 16.991 1.00898 18 2.25 18H7.875C9.11602 18 10.125 16.991 10.125 15.75V11.25C10.125 10.009 9.11602 9 7.875 9H6.46875V11.8125C6.46875 12.1219 6.21562 12.375 5.90625 12.375H4.21875C3.90937 12.375 3.65625 12.1219 3.65625 11.8125V9H2.25ZM12.375 18H18C19.241 18 20.25 16.991 20.25 15.75V11.25C20.25 10.009 19.241 9 18 9H16.5938V11.8125C16.5938 12.1219 16.3406 12.375 16.0312 12.375H14.3438C14.0344 12.375 13.7812 12.1219 13.7812 11.8125V9H12.375C11.8477 9 11.3625 9.1793 10.9793 9.48516C11.1516 9.85078 11.25 10.2586 11.25 10.6875V16.3125C11.25 16.7414 11.1516 17.1492 10.9793 17.5148C11.3625 17.8207 11.8477 18 12.375 18Z" fill="#A5AAC9"/>
</svg>
